<?xml version="1.0" encoding="UTF-8" standalone="no"?>
<!DOCTYPE svg PUBLIC "-//W3C//DTD SVG 1.1//EN"
 "http://www.w3.org/Graphics/SVG/1.1/DTD/svg11.dtd">
<!-- Generated by graphviz version 2.40.1 (20161225.0304)
 -->
<!-- Title: dependencies Pages: 1 -->
<svg width="504pt" height="284pt"
 viewBox="0.00 0.00 504.00 284.00" xmlns="http://www.w3.org/2000/svg" xmlns:xlink="http://www.w3.org/1999/xlink">
<g id="graph0" class="graph" transform="scale(1 1) rotate(0) translate(4 280)">
<title>dependencies</title>
<polygon fill="#ffffff" stroke="transparent" points="-4,4 -4,-280 500,-280 500,4 -4,4"/>
<text text-anchor="start" x="227.0091" y="-42.4" font-family="sans-serif" font-weight="bold" font-size="14.00" fill="#000000">Legend</text>
<polygon fill="#ffffb3" stroke="transparent" points="14,-10 14,-30 34,-30 34,-10 14,-10"/>
<text text-anchor="start" x="37.629" y="-15.4" font-family="sans-serif" font-size="14.00" fill="#000000"> &#160;Declarations</text>
<polygon fill="#8dd3c7" stroke="transparent" points="127,-10 127,-30 147,-30 147,-10 127,-10"/>
<text text-anchor="start" x="150.7251" y="-15.4" font-family="sans-serif" font-size="14.00" fill="#000000"> &#160;Module</text>
<polygon fill="#80b1d3" stroke="transparent" points="213,-10 213,-30 233,-30 233,-10 213,-10"/>
<text text-anchor="start" x="236.7812" y="-15.4" font-family="sans-serif" font-size="14.00" fill="#000000"> &#160;Bootstrap</text>
<polygon fill="#fdb462" stroke="transparent" points="310,-10 310,-30 330,-30 330,-10 310,-10"/>
<text text-anchor="start" x="333.6732" y="-15.4" font-family="sans-serif" font-size="14.00" fill="#000000"> &#160;Providers</text>
<polygon fill="#fb8072" stroke="transparent" points="406,-10 406,-30 426,-30 426,-10 406,-10"/>
<text text-anchor="start" x="429.7258" y="-15.4" font-family="sans-serif" font-size="14.00" fill="#000000"> &#160;Exports</text>
<g id="clust1" class="cluster">
<title>cluster_AppModule</title>
<polygon fill="none" stroke="#000000" stroke-dasharray="1,5" points="58,-70 58,-268 162,-268 162,-70 58,-70"/>
</g>
<g id="clust2" class="cluster">
<title>cluster_AppModule_declarations</title>
<polygon fill="none" stroke="#000000" points="72,-78 72,-130 148,-130 148,-78 72,-78"/>
</g>
<g id="clust6" class="cluster">
<title>cluster_AppModule_bootstrap</title>
<polygon fill="none" stroke="#000000" points="66,-208 66,-260 154,-260 154,-208 66,-208"/>
</g>
<g id="clust8" class="cluster">
<title>cluster_HomePageModule</title>
<polygon fill="none" stroke="#000000" stroke-dasharray="1,5" points="170,-70 170,-195 306,-195 306,-70 170,-70"/>
</g>
<g id="clust9" class="cluster">
<title>cluster_HomePageModule_declarations</title>
<polygon fill="none" stroke="#000000" points="191,-78 191,-130 285,-130 285,-78 191,-78"/>
</g>
<g id="clust15" class="cluster">
<title>cluster_ListPageModule</title>
<polygon fill="none" stroke="#000000" stroke-dasharray="1,5" points="314,-70 314,-195 438,-195 438,-70 314,-70"/>
</g>
<g id="clust16" class="cluster">
<title>cluster_ListPageModule_declarations</title>
<polygon fill="none" stroke="#000000" points="336,-78 336,-130 416,-130 416,-78 336,-78"/>
</g>
<!-- MyApp -->
<g id="node1" class="node">
<title>MyApp</title>
<polygon fill="#ffffb3" stroke="#000000" points="139.5529,-122 80.4471,-122 80.4471,-86 139.5529,-86 139.5529,-122"/>
<text text-anchor="middle" x="110" y="-99.8" font-family="Times,serif" font-size="14.00" fill="#000000">MyApp</text>
</g>
<!-- AppModule -->
<g id="node2" class="node">
<title>AppModule</title>
<polygon fill="#8dd3c7" stroke="#000000" points="151.6571,-187 148.6571,-191 127.6571,-191 124.6571,-187 68.3429,-187 68.3429,-151 151.6571,-151 151.6571,-187"/>
<text text-anchor="middle" x="110" y="-164.8" font-family="Times,serif" font-size="14.00" fill="#000000">AppModule</text>
</g>
<!-- MyApp&#45;&gt;AppModule -->
<g id="edge1" class="edge">
<title>MyApp&#45;&gt;AppModule</title>
<path fill="none" stroke="#000000" d="M110,-122.1061C110,-122.1061 110,-140.991 110,-140.991"/>
<polygon fill="#000000" stroke="#000000" points="106.5001,-140.9909 110,-150.991 113.5001,-140.991 106.5001,-140.9909"/>
</g>
<!-- IonicApp  -->
<g id="node3" class="node">
<title>IonicApp </title>
<polygon fill="#80b1d3" stroke="#000000" points="146.3734,-252 73.6266,-252 73.6266,-216 146.3734,-216 146.3734,-252"/>
<text text-anchor="middle" x="110" y="-229.8" font-family="Times,serif" font-size="14.00" fill="#000000">IonicApp </text>
</g>
<!-- AppModule&#45;&gt;IonicApp  -->
<g id="edge2" class="edge">
<title>AppModule&#45;&gt;IonicApp </title>
<path fill="none" stroke="#000000" stroke-dasharray="1,5" d="M110,-187.1061C110,-187.1061 110,-205.991 110,-205.991"/>
<polygon fill="#000000" stroke="#000000" points="106.5001,-205.9909 110,-215.991 113.5001,-205.991 106.5001,-205.9909"/>
</g>
<!-- HomePage -->
<g id="node4" class="node">
<title>HomePage</title>
<polygon fill="#ffffb3" stroke="#000000" points="276.9248,-122 199.0752,-122 199.0752,-86 276.9248,-86 276.9248,-122"/>
<text text-anchor="middle" x="238" y="-99.8" font-family="Times,serif" font-size="14.00" fill="#000000">HomePage</text>
</g>
<!-- HomePageModule -->
<g id="node5" class="node">
<title>HomePageModule</title>
<polygon fill="#8dd3c7" stroke="#000000" points="298.4734,-187 295.4734,-191 274.4734,-191 271.4734,-187 177.5266,-187 177.5266,-151 298.4734,-151 298.4734,-187"/>
<text text-anchor="middle" x="238" y="-164.8" font-family="Times,serif" font-size="14.00" fill="#000000">HomePageModule</text>
</g>
<!-- HomePage&#45;&gt;HomePageModule -->
<g id="edge3" class="edge">
<title>HomePage&#45;&gt;HomePageModule</title>
<path fill="none" stroke="#000000" d="M238,-122.1061C238,-122.1061 238,-140.991 238,-140.991"/>
<polygon fill="#000000" stroke="#000000" points="234.5001,-140.9909 238,-150.991 241.5001,-140.991 234.5001,-140.9909"/>
</g>
<!-- ListPage -->
<g id="node6" class="node">
<title>ListPage</title>
<polygon fill="#ffffb3" stroke="#000000" points="408.4902,-122 343.5098,-122 343.5098,-86 408.4902,-86 408.4902,-122"/>
<text text-anchor="middle" x="376" y="-99.8" font-family="Times,serif" font-size="14.00" fill="#000000">ListPage</text>
</g>
<!-- ListPageModule -->
<g id="node7" class="node">
<title>ListPageModule</title>
<polygon fill="#8dd3c7" stroke="#000000" points="430.041,-187 427.041,-191 406.041,-191 403.041,-187 321.959,-187 321.959,-151 430.041,-151 430.041,-187"/>
<text text-anchor="middle" x="376" y="-164.8" font-family="Times,serif" font-size="14.00" fill="#000000">ListPageModule</text>
</g>
<!-- ListPage&#45;&gt;ListPageModule -->
<g id="edge4" class="edge">
<title>ListPage&#45;&gt;ListPageModule</title>
<path fill="none" stroke="#000000" d="M376,-122.1061C376,-122.1061 376,-140.991 376,-140.991"/>
<polygon fill="#000000" stroke="#000000" points="372.5001,-140.9909 376,-150.991 379.5001,-140.991 372.5001,-140.9909"/>
</g>
</g>
</svg>
